<!-- Generated by IcoMoon.io -->
<svg version="1.1" xmlns="http://www.w3.org/2000/svg" width="57" height="32" viewBox="0 0 57 32">
<title>Logo-3</title>
<path fill="#2196f3" d="M12.878 11.255h-0.002c-1.279 0-2.316 0.921-2.316 2.058v0.002c0 1.137 1.037 2.058 2.316 2.058h0.002c1.279 0 2.316-0.922 2.316-2.058v-0.001c0-1.137-1.037-2.059-2.316-2.059zM29.971 10.597c-0.004-1.579-0.711-3.092-1.967-4.209s-2.958-1.745-4.734-1.749c-1.777 0.003-3.481 0.631-4.737 1.748s-1.964 2.63-1.968 4.209v8.706s13.405-1.327 13.406-8.704v-0.002zM5.867 22.16c0.003 1.099 0.496 2.151 1.37 2.928s2.058 1.214 3.294 1.218c1.236-0.003 2.42-0.441 3.294-1.218s1.366-1.829 1.37-2.927v-6.058s-9.327 0.924-9.327 6.057zM10.53 23.245c-0.242 0-0.477-0.063-0.678-0.183-0.195-0.115-0.35-0.281-0.447-0.48l-0.003-0.007c-0.059-0.121-0.093-0.264-0.093-0.415 0-0.075 0.009-0.148 0.025-0.219l-0.001 0.007c0.047-0.211 0.163-0.404 0.334-0.556s0.388-0.255 0.625-0.297c0.072-0.013 0.154-0.021 0.239-0.021 0.168 0 0.328 0.030 0.476 0.085l-0.009-0.003c0.223 0.082 0.414 0.221 0.548 0.4s0.206 0.388 0.206 0.603c0.001 0.143-0.030 0.285-0.092 0.417-0.066 0.139-0.155 0.256-0.263 0.352l-0.001 0.001c-0.113 0.101-0.248 0.181-0.397 0.236-0.139 0.053-0.3 0.083-0.467 0.083-0 0-0.001 0-0.001 0h0v-0.004zM19.956 22.647h-0.9v0.93h-0.469v-2.276h1.482v0.38h-1.013v0.588h0.9v0.378zM22.209 22.491c0 0.224-0.039 0.42-0.118 0.589s-0.193 0.299-0.341 0.391c-0.139 0.086-0.308 0.138-0.489 0.138-0.006 0-0.012-0-0.018-0h0.001c-0.189 0-0.357-0.045-0.505-0.136-0.149-0.094-0.267-0.226-0.341-0.382l-0.002-0.006c-0.078-0.165-0.123-0.358-0.123-0.561 0-0.007 0-0.014 0-0.021v0.001-0.112c0-0.224 0.040-0.421 0.12-0.591 0.081-0.171 0.195-0.302 0.342-0.392 0.148-0.092 0.316-0.138 0.506-0.138s0.357 0.046 0.505 0.138c0.148 0.091 0.262 0.221 0.342 0.392 0.081 0.17 0.122 0.366 0.122 0.589v0.101zM21.734 22.388c0-0.238-0.043-0.42-0.128-0.544-0.076-0.113-0.203-0.186-0.348-0.186-0.006 0-0.013 0-0.019 0l0.001-0c-0.005-0-0.012-0-0.018-0-0.144 0-0.271 0.073-0.346 0.183l-0.001 0.001c-0.085 0.122-0.129 0.301-0.13 0.538v0.111c0 0.232 0.043 0.412 0.128 0.54s0.208 0.192 0.369 0.192c0.006 0 0.012 0 0.018 0 0.143 0 0.269-0.073 0.343-0.183l0.001-0.001c0.084-0.124 0.127-0.304 0.128-0.541v-0.111zM23.729 22.98c0-0.004 0-0.009 0-0.013 0-0.077-0.037-0.145-0.093-0.189l-0.001-0c-0.062-0.048-0.175-0.098-0.338-0.15-0.15-0.047-0.278-0.1-0.399-0.163l0.014 0.006c-0.259-0.14-0.388-0.328-0.388-0.564 0-0.123 0.034-0.233 0.103-0.328 0.070-0.097 0.17-0.172 0.299-0.227 0.13-0.054 0.276-0.081 0.437-0.081 0.163 0 0.307 0.029 0.435 0.089 0.127 0.059 0.226 0.141 0.295 0.249 0.071 0.107 0.107 0.229 0.107 0.365h-0.469c0-0.104-0.032-0.185-0.098-0.242-0.066-0.059-0.158-0.087-0.276-0.087-0.115 0-0.204 0.025-0.267 0.074-0.058 0.042-0.096 0.109-0.096 0.185 0 0.002 0 0.004 0 0.006v-0c0 0.074 0.037 0.136 0.111 0.186 0.075 0.050 0.185 0.097 0.33 0.14 0.267 0.080 0.461 0.18 0.583 0.299s0.183 0.267 0.183 0.444c0 0.197-0.075 0.352-0.224 0.464s-0.349 0.167-0.601 0.167c-0.175 0-0.334-0.032-0.478-0.096-0.135-0.057-0.247-0.148-0.328-0.261l-0.002-0.002c-0.070-0.105-0.112-0.234-0.112-0.373 0-0.005 0-0.010 0-0.015v0.001h0.47c0 0.251 0.15 0.377 0.45 0.377 0.111 0 0.198-0.022 0.261-0.067 0.057-0.041 0.093-0.107 0.093-0.182 0-0.003-0-0.006-0-0.009v0zM26.231 21.682h-0.697v1.895h-0.469v-1.895h-0.686v-0.38h1.853v0.38zM27.868 22.591h-0.9v0.61h1.056v0.377h-1.525v-2.276h1.522v0.38h-1.053v0.542h0.9v0.367zM29.142 22.744h-0.373v0.833h-0.469v-2.276h0.845c0.269 0 0.476 0.060 0.622 0.18s0.219 0.289 0.219 0.508c0 0.155-0.034 0.285-0.101 0.389-0.075 0.109-0.179 0.194-0.3 0.245l-0.005 0.002 0.492 0.93v0.021h-0.503l-0.427-0.832zM28.769 22.364h0.379c0.117 0 0.208-0.029 0.273-0.089 0.060-0.059 0.097-0.141 0.097-0.231 0-0.006-0-0.012-0-0.018l0 0.001c0-0.108-0.030-0.192-0.092-0.253s-0.154-0.092-0.28-0.092h-0.377v0.683zM31.609 22.775v0.802h-0.469v-2.276h0.887c0.171 0 0.321 0.031 0.45 0.094 0.13 0.062 0.23 0.151 0.3 0.267 0.069 0.115 0.105 0.245 0.105 0.392 0 0.223-0.077 0.399-0.229 0.528-0.153 0.128-0.363 0.193-0.633 0.193h-0.411zM31.609 22.396h0.419c0.124 0 0.219-0.029 0.283-0.087 0.066-0.059 0.099-0.142 0.099-0.25 0-0.005 0-0.011 0-0.017 0-0.098-0.037-0.187-0.099-0.254l0 0c-0.066-0.068-0.156-0.104-0.272-0.106h-0.43v0.715zM34.574 22.591h-0.9v0.61h1.056v0.377h-1.525v-2.276h1.522v0.38h-1.053v0.542h0.9v0.367zM36.75 21.682h-0.697v1.895h-0.469v-1.895h-0.687v-0.38h1.853v0.38zM38.387 22.591h-0.899v0.61h1.056v0.377h-1.525v-2.276h1.522v0.38h-1.053v0.542h0.9v0.367zM39.661 22.744h-0.373v0.833h-0.469v-2.276h0.846c0.269 0 0.476 0.060 0.622 0.18s0.219 0.289 0.219 0.508c0 0.155-0.034 0.285-0.101 0.389-0.075 0.109-0.179 0.194-0.301 0.245l-0.005 0.002 0.492 0.93v0.021h-0.503l-0.427-0.832zM39.287 22.364h0.378c0.117 0 0.209-0.029 0.273-0.089 0.060-0.059 0.097-0.141 0.097-0.232 0-0.006-0-0.012-0-0.018l0 0.001c0-0.108-0.030-0.192-0.092-0.253-0.060-0.061-0.154-0.092-0.279-0.092h-0.377v0.683zM42.042 22.98c0-0.004 0-0.009 0-0.013 0-0.077-0.037-0.146-0.094-0.189l-0.001-0c-0.062-0.048-0.175-0.098-0.338-0.15-0.15-0.047-0.278-0.1-0.399-0.163l0.014 0.006c-0.259-0.14-0.388-0.328-0.388-0.564 0-0.123 0.035-0.233 0.103-0.328 0.070-0.097 0.17-0.172 0.299-0.227 0.13-0.054 0.276-0.081 0.437-0.081 0.163 0 0.307 0.029 0.435 0.089 0.127 0.059 0.226 0.141 0.295 0.249 0.071 0.107 0.107 0.229 0.107 0.365h-0.469c0-0.104-0.032-0.185-0.098-0.242-0.066-0.059-0.158-0.087-0.276-0.087-0.115 0-0.204 0.025-0.267 0.074-0.058 0.042-0.096 0.109-0.096 0.186 0 0.002 0 0.003 0 0.005v-0c0 0.074 0.037 0.136 0.111 0.186s0.185 0.097 0.33 0.14c0.267 0.080 0.461 0.18 0.583 0.299s0.183 0.267 0.183 0.444c0 0.197-0.075 0.352-0.224 0.464s-0.349 0.167-0.601 0.167c-0.175 0-0.334-0.032-0.478-0.096-0.135-0.057-0.247-0.148-0.328-0.261l-0.002-0.002c-0.070-0.105-0.112-0.234-0.112-0.373 0-0.005 0-0.010 0-0.015v0.001h0.47c0 0.251 0.15 0.377 0.45 0.377 0.111 0 0.198-0.022 0.261-0.067 0.057-0.041 0.094-0.107 0.094-0.182 0-0.003-0-0.006-0-0.009v0z"></path>
</svg>
